<svg width="512" height="512" viewBox="0 0 512 512" fill="none" xmlns="http://www.w3.org/2000/svg">
  <!-- Background Circle -->
  <circle cx="256" cy="256" r="240" fill="#4a90e2" opacity="0.1"/>
  
  <!-- Fork and Knife Design -->
  <g transform="translate(128, 96)" stroke="#4a90e2" stroke-width="24" stroke-linecap="round" stroke-linejoin="round">
    <!-- Fork -->
    <path d="M64 0v320M32 0v96M96 0v96M64 96c-32 0-32 0-32 32M64 96c32 0 32 0 32 32"/>
    
    <!-- Knife -->
    <path d="M192 0c32 0 32 32 32 64c0 32-32 64-32 64v192M192 128l-32-32v32z"/>
  </g>
  
  <!-- Pulse Line (representing tracking) -->
  <path d="M96 384h64l32-64 64 128 32-64h128" stroke="#4a90e2" stroke-width="16" stroke-linecap="round" stroke-linejoin="round" fill="none"/>
</svg>